<svg xmlns="http://www.w3.org/2000/svg" viewBox="0 0 480 300"><rect width="480" height="300" fill="#0B0B0B"/><rect x="40" y="36" width="90" height="7" rx="3.5" fill="#7C7C7A"/><rect x="40" y="54" width="170" height="22" rx="11" fill="#F5F5F4"/><rect x="40" y="82" width="130" height="22" rx="11" fill="#E8352B"/><rect x="40" y="116" width="200" height="7" rx="3.5" fill="#5A5A5A"/><rect x="40" y="130" width="170" height="7" rx="3.5" fill="#5A5A5A"/><rect x="40" y="150" width="96" height="22" rx="11" fill="#F5F5F4"/><g transform="rotate(4 365 105)"><rect x="300" y="34" width="130" height="142" rx="12" fill="#1C1C1C"/><rect x="314" y="54" width="80" height="10" rx="5" fill="#F5F5F4"/><rect x="314" y="70" width="64" height="10" rx="5" fill="#E8352B"/><rect x="314" y="94" width="96" height="6" rx="3" fill="#5A5A5A"/><rect x="314" y="106" width="80" height="6" rx="3" fill="#5A5A5A"/><rect x="314" y="128" width="36" height="14" rx="7" fill="none" stroke="#5A5A5A"/><rect x="356" y="128" width="40" height="14" rx="7" fill="none" stroke="#5A5A5A"/></g><rect x="40" y="200" width="400" height="1" fill="#2A2A2A"/><rect x="40" y="214" width="60" height="7" rx="3.5" fill="#5A5A5A"/><rect x="40" y="230" width="44" height="7" rx="3.5" fill="#5A5A5A"/><rect x="40" y="246" width="52" height="7" rx="3.5" fill="#5A5A5A"/><rect x="140" y="214" width="300" height="56" rx="10" fill="#1C1C1C"/><rect x="154" y="226" width="140" height="9" rx="4.5" fill="#F5F5F4"/><rect x="154" y="242" width="90" height="7" rx="3.5" fill="#E8352B"/><rect x="154" y="256" width="200" height="5" rx="2.5" fill="#5A5A5A"/></svg>
