<svg xmlns="http://www.w3.org/2000/svg" viewBox="0 0 480 300"><rect width="480" height="300" fill="#0B0B0B"/><rect x="190" y="36" width="100" height="8" rx="4" fill="#7C7C7A"/><rect x="140" y="54" width="200" height="18" rx="9" fill="#F5F5F4"/><g fill="#1C1C1C"><rect x="40" y="104" width="88" height="80" rx="12"/><rect x="138" y="104" width="88" height="80" rx="12"/><rect x="236" y="104" width="88" height="80" rx="12"/><rect x="334" y="104" width="88" height="80" rx="12"/><rect x="40" y="194" width="88" height="80" rx="12"/><rect x="138" y="194" width="88" height="80" rx="12"/><rect x="236" y="194" width="88" height="80" rx="12"/><rect x="334" y="194" width="88" height="80" rx="12"/></g><g fill="#F5F5F4"><rect x="70" y="118" width="28" height="28" rx="7"/><rect x="266" y="118" width="28" height="28" rx="7"/><rect x="168" y="208" width="28" height="28" rx="7"/><rect x="364" y="208" width="28" height="28" rx="7"/></g><g fill="#E8352B"><rect x="168" y="118" width="28" height="28" rx="7"/><rect x="364" y="118" width="28" height="28" rx="7"/><rect x="70" y="208" width="28" height="28" rx="7"/><rect x="266" y="208" width="28" height="28" rx="7"/></g><g fill="#8A8A88"><rect x="62" y="158" width="44" height="6" rx="3"/><rect x="160" y="158" width="44" height="6" rx="3"/><rect x="258" y="158" width="44" height="6" rx="3"/><rect x="356" y="158" width="44" height="6" rx="3"/><rect x="62" y="248" width="44" height="6" rx="3"/><rect x="160" y="248" width="44" height="6" rx="3"/><rect x="258" y="248" width="44" height="6" rx="3"/><rect x="356" y="248" width="44" height="6" rx="3"/></g></svg>
